HIERARCHY
ROOT Hips
{
	OFFSET 0.000000 0.000000 0.000000
	CHANNELS 6 Xposition Yposition Zposition Zrotation Yrotation Xrotation 
	JOINT LHipJoint
	{
		OFFSET 0.000000 0.000000 0.000000
		CHANNELS 3 Zrotation Yrotation Xrotation
		JOINT LeftUpLeg
		{
			OFFSET 1.363060 -1.794630 0.839290
			CHANNELS 3 Zrotation Yrotation Xrotation
			JOINT LeftLeg
			{
				OFFSET 2.448110 -6.726130 0.000000
				CHANNELS 3 Zrotation Yrotation Xrotation
				JOINT LeftFoot
				{
					OFFSET 2.562200 -7.039590 0.000000
					CHANNELS 3 Zrotation Yrotation Xrotation
					JOINT LeftToeBase
					{
						OFFSET 0.157640 -0.433110 2.322550
						CHANNELS 3 Zrotation Yrotation Xrotation
						End Site
						{
							OFFSET 0.000000 0.000000 0.000000
						}
					}
				}
			}
		}
	}
	JOINT RHipJoint
	{
		OFFSET 0.000000 0.000000 0.000000
		CHANNELS 3 Zrotation Yrotation Xrotation
		JOINT RightUpLeg
		{
			OFFSET -1.305520 -1.794630 0.839290
			CHANNELS 3 Zrotation Yrotation Xrotation
			JOINT RightLeg
			{
				OFFSET -2.542530 -6.985550 0.000000
				CHANNELS 3 Zrotation Yrotation Xrotation
				JOINT RightFoot
				{
					OFFSET -2.568260 -7.056230 0.000000
					CHANNELS 3 Zrotation Yrotation Xrotation
					JOINT RightToeBase
					{
						OFFSET -0.164730 -0.452590 2.363150
						CHANNELS 3 Zrotation Yrotation Xrotation
						End Site
						{
							OFFSET 0.000000 0.000000 0.000000
						}
					}
				}
			}
		}
	}
	JOINT LowerBack
	{
		OFFSET 0.000000 0.000000 0.000000
		CHANNELS 3 Zrotation Yrotation Xrotation
		JOINT Spine
		{
			OFFSET 0.028270 2.035590 -0.193380
			CHANNELS 3 Zrotation Yrotation Xrotation
			JOINT Spine1
			{
				OFFSET 0.056720 2.048850 -0.042750
				CHANNELS 3 Zrotation Yrotation Xrotation
				JOINT Neck
				{
					OFFSET 0.000000 0.000000 0.000000
					CHANNELS 3 Zrotation Yrotation Xrotation
					JOINT Neck1
					{
						OFFSET -0.054170 1.746240 0.172020
						CHANNELS 3 Zrotation Yrotation Xrotation
						JOINT Head
						{
							OFFSET 0.104070 1.761360 -0.123970
							CHANNELS 3 Zrotation Yrotation Xrotation
							End Site
							{
								OFFSET 0.000000 0.000000 0.000000
							}
						}
					}
				}
				JOINT LeftShoulder
				{
					OFFSET 0.000000 0.000000 0.000000
					CHANNELS 3 Zrotation Yrotation Xrotation
					JOINT LeftArm
					{
						OFFSET 3.362410 1.200890 -0.311210
						CHANNELS 3 Zrotation Yrotation Xrotation
						JOINT LeftForeArm
						{
							OFFSET 4.983000 -0.000000 -0.000000
							CHANNELS 3 Zrotation Yrotation Xrotation
							JOINT LeftHand
							{
								OFFSET 3.483560 -0.000000 -0.000000
								CHANNELS 3 Zrotation Yrotation Xrotation
								JOINT LeftFingerBase
								{
									OFFSET 0.000000 0.000000 0.000000
									CHANNELS 3 Zrotation Yrotation Xrotation
									JOINT LeftHandIndex1
									{
										OFFSET 0.715260 -0.000000 -0.000000
										CHANNELS 3 Zrotation Yrotation Xrotation
										End Site
										{
											OFFSET 0.000000 0.000000 0.000000
										}
									}
								}
								JOINT LThumb
								{
									OFFSET 0.000000 0.000000 0.000000
									CHANNELS 3 Zrotation Yrotation Xrotation
									End Site
									{
										OFFSET 0.000000 0.000000 0.000000
									}
								}
							}
						}
					}
				}
				JOINT RightShoulder
				{
					OFFSET 0.000000 0.000000 0.000000
					CHANNELS 3 Zrotation Yrotation Xrotation
					JOINT RightArm
					{
						OFFSET -3.136600 1.374050 -0.404650
						CHANNELS 3 Zrotation Yrotation Xrotation
						JOINT RightForeArm
						{
							OFFSET -5.241900 -0.000000 -0.000000
							CHANNELS 3 Zrotation Yrotation Xrotation
							JOINT RightHand
							{
								OFFSET -3.444170 -0.000000 -0.000000
								CHANNELS 3 Zrotation Yrotation Xrotation
								JOINT RightFingerBase
								{
									OFFSET 0.000000 0.000000 0.000000
									CHANNELS 3 Zrotation Yrotation Xrotation
									JOINT RightHandIndex1
									{
										OFFSET -0.622530 -0.000000 -0.000000
										CHANNELS 3 Zrotation Yrotation Xrotation
										End Site
										{
											OFFSET 0.000000 0.000000 0.000000
										}
									}
								}
								JOINT RThumb
								{
									OFFSET 0.000000 0.000000 0.000000
									CHANNELS 3 Zrotation Yrotation Xrotation
									End Site
									{
										OFFSET 0.000000 0.000000 0.000000
									}
								}
							}
						}
					}
				}
			}
		}
	}
}
MOTION
Frames: 6
Frame Time: 0.008333
-11.796426 17.247318 0.339567 152.030440 86.196299 154.192306 -10.956912 5.648493 1.029565 0.093452 9.895790 7.003044 -0.238916 2.078466 27.239739 0.893385 -4.612973 24.742339 -2.789900 0.000000 -78.386901 9.777046 -0.897556 2.103916 7.751375 -4.692292 -20.483704 1.704155 0.105506 11.713898 -2.078010 -10.534106 -1.863263 -1.935500 -0.000000 -28.028200 2.470691 -5.922851 -5.080343 0.306942 -6.272463 -2.864840 -5.261133 -6.250786 3.967463 10.291858 -22.575520 -11.497007 -2.062686 -0.105258 -0.943090 0.000000 0.000000 0.000000 5.274569 15.192372 1.779719 -30.449393 -2.527284 -6.953236 -1.871630 -49.861651 0.005314 -0.506373 -0.521946 0.003728 -0.110015 0.210351 0.000000 0.000000 0.000000 0.000000 0.000000 0.000000 0.000000 16.485581 -21.506716 -0.342199 70.948531 -14.464769 -19.972672 4.736248 18.358772 0.001688 8.046289 -0.609031 -0.041026 0.087279 -0.014795 -0.000000 0.000000 0.000000 0.000000 0.000000 0.000000 0.000000 
-11.631934 17.249798 0.374622 153.902097 86.332491 156.003350 -11.068057 5.621983 0.972324 0.742375 10.448836 5.994311 -0.120434 2.120117 29.358044 1.023645 -4.696614 26.027339 -2.995300 0.000001 -75.172300 9.739857 -0.964252 2.088394 8.056080 -4.570510 -20.245256 1.697770 0.028869 12.617726 -2.097041 -10.536564 -2.262696 -1.842600 -0.000000 -26.518600 2.710295 -5.821521 -5.039663 0.342846 -6.188947 -2.874801 -5.286282 -6.167100 3.925675 10.359559 -22.459105 -11.525593 -2.073374 -0.106038 -0.951343 0.000000 0.000000 0.000000 5.216935 15.154765 1.775928 -31.045796 -2.112030 -6.872476 -1.920282 -49.626452 0.005492 -0.523108 -0.573590 0.004047 -0.112755 0.204906 0.000000 0.000000 0.000000 0.000000 0.000000 0.000000 0.000000 16.517261 -21.313642 -0.313300 70.398235 -13.658731 -19.852302 4.710057 18.250414 0.002258 7.776536 -0.427226 -0.027213 0.088628 -0.017369 -0.000000 0.000000 0.000000 0.000000 0.000000 0.000000 0.000000 
-11.471035 17.251303 0.409556 155.666200 86.472771 157.704038 -11.168466 5.576256 0.895890 1.332060 11.014209 4.916591 -0.014775 2.162349 31.567662 1.155424 -4.442242 27.032077 -3.002200 0.000000 -71.308000 9.705998 -1.021401 2.063944 8.352573 -4.466194 -19.983806 1.694540 -0.042450 13.509169 -2.112620 -10.499316 -2.754241 -1.723800 -0.000000 -24.949200 2.928412 -5.721680 -4.965947 0.373362 -6.104410 -2.878301 -5.311810 -6.082603 3.882537 10.434671 -22.322373 -11.556119 -2.081973 -0.106527 -0.960375 0.000000 0.000000 0.000000 5.166561 15.112975 1.774106 -31.675184 -1.664368 -6.774179 -1.973387 -49.346470 0.005635 -0.530172 -0.626304 0.004263 -0.115724 0.199092 -0.000000 0.000000 0.000000 0.000000 0.000000 0.000000 0.000000 16.540807 -21.102882 -0.278668 69.859601 -12.761594 -19.684325 4.681447 18.126208 0.002821 7.496043 -0.243183 -0.014101 0.089938 -0.020006 -0.000000 0.000000 0.000000 0.000000 0.000000 0.000000 0.000000 
-11.313700 17.251895 0.444626 157.224341 86.603613 159.193034 -11.254480 5.513121 0.801993 1.840000 11.567340 3.788266 0.078917 2.209692 33.834546 1.284362 -3.802060 27.694778 -2.768200 -0.000000 -67.034599 9.677766 -1.068849 2.028939 8.626644 -4.389537 -19.679573 1.693595 -0.106157 14.357263 -2.125570 -10.428663 -3.329509 -1.582500 -0.000000 -23.369200 3.111778 -5.625887 -4.858856 0.395512 -6.020341 -2.875074 -5.338752 -5.998744 3.836867 10.515870 -22.158746 -11.584491 -2.091194 -0.107021 -0.969093 0.000000 0.000000 0.000000 5.126129 15.061106 1.774477 -32.328796 -1.188707 -6.646808 -2.031204 -49.013617 0.005740 -0.526565 -0.679276 0.004379 -0.118919 0.192819 0.000000 0.000000 0.000000 0.000000 0.000000 0.000000 0.000000 16.565559 -20.868009 -0.240621 69.337852 -11.800016 -19.481371 4.649318 18.020987 0.003356 7.208452 -0.066867 -0.002388 0.091151 -0.022673 -0.000000 0.000000 0.000000 0.000000 0.000000 0.000000 0.000000 
-11.159721 17.251805 0.479698 158.633558 86.718727 160.528900 -11.326606 5.435051 0.693655 2.264051 12.093977 2.614224 0.162996 2.265454 36.127978 1.408536 -2.770813 27.978183 -2.286000 -0.000000 -62.612100 9.653910 -1.107655 1.985211 8.879357 -4.336552 -19.315209 1.694890 -0.158647 15.123583 -2.139268 -10.346039 -3.972384 -1.426500 -0.000000 -21.806900 3.263249 -5.535244 -4.723856 0.410348 -5.938106 -2.866033 -5.365968 -5.916883 3.789594 10.597259 -21.974467 -11.608401 -2.101489 -0.107605 -0.976842 0.000000 0.000000 0.000000 5.090337 14.998588 1.776341 -33.001290 -0.692258 -6.480513 -2.093896 -48.621526 0.005803 -0.512766 -0.727713 0.004393 -0.122324 0.185982 -0.000000 0.000000 0.000000 0.000000 0.000000 0.000000 0.000000 16.589200 -20.616880 -0.201195 68.829560 -10.777207 -19.225430 4.613522 17.936653 0.003890 6.904816 0.118554 0.008924 0.092322 -0.025434 -0.000000 0.000000 0.000000 0.000000 0.000000 0.000000 0.000000 
-11.008735 17.251336 0.514787 159.902795 86.810624 161.721285 -11.385087 5.344630 0.575121 2.599586 12.578830 1.403321 0.239978 2.331291 38.411195 1.527426 -1.374890 27.863141 -1.578500 -0.000000 -58.295100 9.633963 -1.139003 1.933500 9.109544 -4.310214 -18.879658 1.698274 -0.197670 15.778357 -2.155804 -10.266447 -4.663046 -1.262100 0.000000 -20.304900 3.382287 -5.450127 -4.566498 0.417929 -5.858159 -2.852206 -5.393250 -5.837434 3.740806 10.674234 -21.771295 -11.624183 -2.114307 -0.108477 -0.982589 0.000000 0.000000 0.000000 5.056677 14.922187 1.778736 -33.688875 -0.181484 -6.265794 -2.161576 -48.164132 0.005817 -0.489057 -0.767816 0.004305 -0.125917 0.178479 0.000000 0.000000 0.000000 0.000000 0.000000 0.000000 0.000000 16.613618 -20.351894 -0.162529 68.331989 -9.707393 -18.914451 4.573954 17.883608 0.004435 6.581860 0.319957 0.020036 0.093475 -0.028311 -0.000000 0.000000 0.000000 0.000000 0.000000 0.000000 0.000000 
